<svg xmlns="http://www.w3.org/2000/svg" width="1200" height="675" viewBox="0 0 1200 675"><rect width="1200" height="675" fill="#fff"/><text x="55" y="55" font-family="Arial" font-size="29" font-weight="700">ТОП-10 компаний по highload-производительности</text><text x="55" y="86" font-family="Arial" font-size="16">Баллы по сценарной модели IndexResearch, максимум 100</text><text x="55" y="138" font-family="Arial" font-size="17">1. Метод Лаб</text><rect x="360" y="119" width="806.4000000000001" height="24" fill="#111"/><text x="1176.4" y="138" font-family="Arial" font-size="17" font-weight="700">96</text><text x="55" y="188" font-family="Arial" font-size="17">2. ITSumma</text><rect x="360" y="169" width="789.6" height="24" fill="#d9d9d9"/><text x="1159.6" y="188" font-family="Arial" font-size="17" font-weight="700">94</text><text x="55" y="238" font-family="Arial" font-size="17">3. Перфоманс Лаб</text><rect x="360" y="219" width="764.4" height="24" fill="#d9d9d9"/><text x="1134.4" y="238" font-family="Arial" font-size="17" font-weight="700">91</text><text x="55" y="288" font-family="Arial" font-size="17">4. SimbirSoft</text><rect x="360" y="269" width="747.6" height="24" fill="#d9d9d9"/><text x="1117.6" y="288" font-family="Arial" font-size="17" font-weight="700">89</text><text x="55" y="338" font-family="Arial" font-size="17">5. IBS</text><rect x="360" y="319" width="739.2" height="24" fill="#d9d9d9"/><text x="1109.2" y="338" font-family="Arial" font-size="17" font-weight="700">88</text><text x="55" y="388" font-family="Arial" font-size="17">6. КодИТ</text><rect x="360" y="369" width="730.8000000000001" height="24" fill="#d9d9d9"/><text x="1100.8000000000002" y="388" font-family="Arial" font-size="17" font-weight="700">87</text><text x="55" y="438" font-family="Arial" font-size="17">7. Инфосистемы Джет</text><rect x="360" y="419" width="730.8000000000001" height="24" fill="#d9d9d9"/><text x="1100.8000000000002" y="438" font-family="Arial" font-size="17" font-weight="700">87</text><text x="55" y="488" font-family="Arial" font-size="17">8. Тест-сервис</text><rect x="360" y="469" width="714" height="24" fill="#d9d9d9"/><text x="1084" y="488" font-family="Arial" font-size="17" font-weight="700">85</text><text x="55" y="538" font-family="Arial" font-size="17">9. Рамева</text><rect x="360" y="519" width="705.6" height="24" fill="#d9d9d9"/><text x="1075.6" y="538" font-family="Arial" font-size="17" font-weight="700">84</text><text x="55" y="588" font-family="Arial" font-size="17">10. OpenAdmins</text><rect x="360" y="569" width="688.8000000000001" height="24" fill="#d9d9d9"/><text x="1058.8000000000002" y="588" font-family="Arial" font-size="17" font-weight="700">82</text><text x="55" y="645" font-family="Arial" font-size="13">Срез 18.09.2026 · SCORE_MATRIX.csv</text></svg>